# xmcd CD database file
#
# Track frame offsets:
#	150
#	22720
#	52427
#	74246
#	116614
#	138096
#
# Disc length: 2244 seconds
#
# Revision: 0
# Processed by: cddbd v1.5.2PL0 Copyright (c) Steve Scherf et al.
# Submitted via: CDex 1.51
#
DISCID=5608c206
DTITLE=Mimi Fox - Perpetually Hip (Disk 2)
DYEAR=2007
DGENRE=Jazz
TTITLE0=Caravan
TTITLE1=Polkadots and Moonbeams
TTITLE2=On Green Dolphin Street
TTITLE3=Alone Together
TTITLE4=Somone To Watch Over Me - Skylark (Medley)
TTITLE5=When The Saints Go Marching In
EXTD=YEAR: 2007
EXTT0=
EXTT1=
EXTT2=
EXTT3=
EXTT4=
EXTT5=
PLAYORDER=
